<?xml version="1.0" encoding="utf-8"?>
<!-- Generator: Adobe Illustrator 26.0.0, SVG Export Plug-In . SVG Version: 6.00 Build 0)  -->
<svg version="1.1" id="Layer_1" xmlns="http://www.w3.org/2000/svg" xmlns:xlink="http://www.w3.org/1999/xlink" x="0px" y="0px"
	 viewBox="0 0 1080 1080" style="enable-background:new 0 0 1080 1080;" xml:space="preserve">
<style type="text/css">
	.st0{display:none;fill:#FF0000;}
	.st1{display:none;clip-path:url(#SVGID_00000153663769679452961640000007623105205774153371_);}
	.st2{display:inline;}
	.st3{fill:#FFFFFF;}
</style>
<rect x="566" y="473" transform="matrix(0.5398 -0.8418 0.8418 0.5398 -90.6899 817.1055)" class="st0" width="272" height="37"/>
<g>
	<defs>
		<path id="SVGID_1_" d="M734.14,407.11L725,30l-402-3l-53,326c0,0-193,334-191,334s241,297,241,297s210,82,211,82s286-105,286-105
			l142-255l-74-222l-129.37-41.86L635.18,630.69L591,601l42.93-37.63L734.14,407.11z"/>
	</defs>
	<clipPath id="SVGID_00000015332072785487166160000011273886062737385108_">
		<use xlink:href="#SVGID_1_"  style="display:none;overflow:visible;"/>
	</clipPath>
	<g style="display:none;clip-path:url(#SVGID_00000015332072785487166160000011273886062737385108_);">
		<polygon class="st2" points="142,684.14 523.12,63 523.12,390.22 390,598 523.12,805.81 523.12,1034 332.56,747.03 332.56,953.46 
					"/>
		<polygon class="st2" points="904.12,684.14 523,63 523,390.22 656.12,598 523,805.81 523,1034 713.56,747.03 713.56,953.46 		"/>
	</g>
</g>
<polygon class="st3" points="633.93,563.37 734.14,407.11 523,63 142,684.14 332.56,953.46 332.56,747.03 523,1034 713.56,747.03 
	713.56,953.46 904.12,684.14 755.63,442.14 523,805.81 390,598 523,390.22 "/>
</svg>
