<svg width="250" height="22" viewBox="0 0 250 22" fill="none" xmlns="http://www.w3.org/2000/svg">
<path fill-rule="evenodd" clip-rule="evenodd" d="M15.7559 13.155C15.4863 13.0202 14.1645 12.3706 13.9184 12.2801C13.6723 12.1905 13.4932 12.1462 13.3132 12.4158C13.134 12.6836 12.6192 13.2898 12.4627 13.4689C12.3053 13.649 12.1488 13.6707 11.8801 13.5368C11.6113 13.4011 10.7446 13.1179 9.71774 12.2023C8.91886 11.4894 8.37874 10.6091 8.22222 10.3394C8.0657 10.0707 8.20503 9.92508 8.33983 9.79118C8.46107 9.67085 8.60854 9.47724 8.74334 9.32072C8.87815 9.16329 8.92248 9.05111 9.01205 8.87107C9.10252 8.69193 9.05729 8.53541 8.98943 8.40061C8.92248 8.2658 8.38507 6.94217 8.1607 6.40386C7.94265 5.88002 7.72099 5.95149 7.55633 5.94244C7.39891 5.93521 7.21977 5.9334 7.04064 5.9334C6.8615 5.9334 6.57017 6.00035 6.32409 6.26996C6.07709 6.53866 5.38316 7.18917 5.38316 8.51279C5.38316 9.83551 6.3458 11.1139 6.48061 11.2939C6.61541 11.4731 8.37602 14.1891 11.073 15.3535C11.7154 15.6303 12.2157 15.7959 12.6056 15.9189C13.2498 16.1243 13.8361 16.0954 14.2993 16.0257C14.815 15.9488 15.8898 15.3752 16.1142 14.7473C16.3377 14.1194 16.3377 13.5811 16.2707 13.4689C16.2038 13.3567 16.0246 13.2898 15.755 13.155H15.7559ZM10.8505 19.8527H10.8468C9.24496 19.853 7.67248 19.4224 6.29423 18.606L5.96853 18.4124L2.58301 19.3008L3.48684 16.0004L3.27423 15.662C2.37867 14.2364 1.90473 12.5866 1.90718 10.9031C1.90899 5.9723 5.92057 1.96071 10.8541 1.96071C13.2426 1.96071 15.4881 2.89259 17.1764 4.58263C18.0091 5.41189 18.6691 6.39804 19.1182 7.48402C19.5673 8.57 19.7966 9.73425 19.7929 10.9094C19.791 15.8402 15.7795 19.8527 10.8505 19.8527ZM18.4611 3.29881C17.4642 2.29539 16.2782 1.49978 14.9716 0.958088C13.665 0.416391 12.264 0.139378 10.8496 0.143103C4.91994 0.143103 0.0922828 4.96986 0.0904733 10.9022C0.0895686 12.7985 0.584458 14.6496 1.52629 16.2808L0 21.8567L5.70344 20.3603C7.28118 21.2199 9.04923 21.6703 10.8459 21.6703H10.8505C16.7801 21.6703 21.6077 16.8436 21.6096 10.9103C21.6139 9.49649 21.3379 8.0958 20.7975 6.7893C20.2571 5.48281 19.463 4.29644 18.4611 3.29881Z" fill="#959595"/>
<path fill-rule="evenodd" clip-rule="evenodd" d="M64.4664 0.143066C58.4726 0.143066 53.6096 5.00602 53.6096 10.9999C53.6096 16.9938 58.4726 21.8567 64.4664 21.8567C70.4485 21.8567 75.3232 16.9938 75.3232 10.9999C75.3232 5.00602 70.4485 0.143066 64.4664 0.143066ZM71.6374 5.14715C72.9741 6.77508 73.7138 8.81124 73.7336 10.9176C73.4278 10.8587 70.3662 10.2345 67.2811 10.6235C67.2096 10.4697 67.1508 10.305 67.0802 10.1404C66.8883 9.68748 66.6844 9.23978 66.4686 8.79776C69.8831 7.40809 71.4374 5.40681 71.6374 5.14715ZM64.4664 1.74535C66.8214 1.74535 68.9765 2.62747 70.6132 4.07595C70.4485 4.31118 69.0471 6.18398 65.7502 7.41985C64.2303 4.62965 62.5475 2.34429 62.2878 1.99144C63.0019 1.82469 63.7331 1.7418 64.4664 1.74445V1.74535ZM60.5218 2.61571C60.7688 2.94594 62.4172 5.24215 63.9598 7.97355C59.6261 9.12799 55.7991 9.10446 55.3874 9.10446C55.9882 6.23103 57.9315 3.84072 60.5218 2.61571ZM55.1875 11.0116V10.7294C55.5883 10.7411 60.0857 10.7999 64.7143 9.41027C64.9848 9.92868 65.2318 10.4579 65.4671 10.9881C65.3494 11.0234 65.2201 11.0587 65.1025 11.094C60.3218 12.6365 57.7777 16.8517 57.566 17.2055C56.0347 15.5059 55.1873 13.2993 55.1875 11.0116ZM64.4664 20.2788C62.3231 20.2788 60.3454 19.5487 58.7793 18.3246C58.9439 17.9826 60.8276 14.3555 66.056 12.5307C66.0796 12.5189 66.0922 12.5189 66.1148 12.5072C67.4222 15.8864 67.9515 18.7245 68.0935 19.537C66.9743 20.0201 65.7502 20.2788 64.4664 20.2788ZM69.6361 18.6892C69.542 18.1238 69.0471 15.4159 67.8338 12.0829C70.7426 11.6242 73.2858 12.3778 73.6042 12.4837C73.2034 15.0621 71.7197 17.2878 69.6361 18.6892Z" fill="#959595"/>
<path d="M128.443 0H108.203C107.716 0 107.323 0.39325 107.323 0.88V21.12C107.323 21.6068 107.716 22 108.203 22H128.443C128.93 22 129.323 21.6068 129.323 21.12V0.88C129.323 0.39325 128.93 0 128.443 0ZM113.849 18.7468H110.585V8.24725H113.849V18.7468ZM112.218 6.81175C111.844 6.81175 111.478 6.70079 111.167 6.49289C110.856 6.28499 110.613 5.9895 110.47 5.64379C110.327 5.29807 110.29 4.91765 110.363 4.55064C110.436 4.18363 110.616 3.84651 110.88 3.5819C111.145 3.3173 111.482 3.13711 111.849 3.0641C112.216 2.9911 112.597 3.02857 112.942 3.17177C113.288 3.31497 113.583 3.55747 113.791 3.86861C113.999 4.17975 114.11 4.54555 114.11 4.91975C114.107 5.96475 113.26 6.81175 112.218 6.81175ZM126.07 18.7468H122.808V13.64C122.808 12.4218 122.786 10.857 121.112 10.857C119.415 10.857 119.154 12.1825 119.154 13.552V18.7468H115.895V8.24725H119.024V9.68275H119.068C119.503 8.85775 120.567 7.986 122.157 7.986C125.462 7.986 126.07 10.1612 126.07 12.9882V18.7468Z" fill="#959595"/>
<path d="M188.033 2.7187C187.051 3.15395 185.996 3.44804 184.887 3.58096C186.031 2.89608 186.888 1.81817 187.296 0.54834C186.22 1.18708 185.044 1.63669 183.816 1.87761C182.991 0.996369 181.898 0.412267 180.706 0.215991C179.515 0.0197149 178.292 0.222246 177.228 0.792141C176.163 1.36204 175.317 2.26741 174.82 3.3677C174.323 4.46798 174.203 5.70162 174.478 6.87709C172.299 6.76768 170.168 6.20133 168.222 5.2148C166.276 4.22826 164.559 2.84358 163.183 1.15063C162.713 1.96231 162.442 2.90339 162.442 3.90563C162.441 4.80789 162.664 5.69632 163.089 6.49211C163.514 7.28789 164.129 7.96643 164.879 8.46751C164.009 8.43982 163.158 8.20469 162.397 7.7817V7.85228C162.397 9.11772 162.835 10.3442 163.636 11.3237C164.437 12.3031 165.553 12.9752 166.793 13.2258C165.986 13.4443 165.14 13.4765 164.318 13.3199C164.668 14.4088 165.35 15.3609 166.268 16.0431C167.186 16.7253 168.294 17.1033 169.438 17.1243C167.497 18.6481 165.099 19.4747 162.631 19.4711C162.194 19.4712 161.757 19.4457 161.323 19.3946C163.828 21.0052 166.744 21.86 169.722 21.8567C179.804 21.8567 185.315 13.507 185.315 6.26539C185.315 6.03012 185.309 5.7925 185.298 5.55723C186.37 4.78198 187.296 3.82199 188.031 2.72223L188.033 2.7187Z" fill="#959595"/>
<path d="M238.968 3.19067H246.204V4.92648H238.968V3.19067ZM231.717 10.0586C233.316 9.30185 234.154 8.15063 234.154 6.37179C234.154 2.85356 231.506 2 228.449 2H220.033V19.6593H228.684C231.927 19.6593 234.97 18.1172 234.97 14.5308C234.97 12.3144 233.911 10.6754 231.717 10.0586ZM223.958 5.01255H227.64C229.058 5.01255 230.331 5.40347 230.331 7.03168C230.331 8.53078 229.341 9.13329 227.937 9.13329H223.958V5.01255ZM228.148 16.6611H223.954V11.798H228.231C229.958 11.798 231.049 12.5117 231.049 14.3192C231.049 16.098 229.747 16.6611 228.148 16.6611ZM249.033 13.4513C249.033 9.66766 246.795 6.51524 242.747 6.51524C238.812 6.51524 236.135 9.44531 236.135 13.2863C236.135 17.2672 238.67 20 242.747 20C245.834 20 247.833 18.6264 248.794 15.6964H245.664C245.323 16.7902 243.937 17.364 242.86 17.364C240.778 17.364 239.69 16.159 239.69 14.1112H249.008C249.019 13.8996 249.033 13.6772 249.033 13.4513ZM239.69 11.8948C239.802 10.2128 240.937 9.16198 242.635 9.16198C244.42 9.16198 245.312 10.1984 245.468 11.8948H239.69Z" fill="#959595"/>
</svg>
